@startuml
    class DetalleOrden {
            
        cantidad: float
        precioUnitario: float
    }
    
    class Ingrediente {
            
        id: int
        nombre: String
        unidadMedida: String
        cantidadActual: float
        stockMinimo: float
    }

    class CategoriaIngrediente {
            
        id: int
        nombre: String
    }
        
    class Proveedor {
            
        id: int
        nombre: String
        telefono: String
        email: String
        direccion: String
    }

    Ingrediente --> CategoriaIngrediente : pertenece a
    Ingrediente "0.." --> "0.." Proveedor : suministrado por
    DetalleOrden --> Ingrediente : se refiere a
@enduml